<svg width="401" height="392" viewBox="0 0 401 392" fill="none" xmlns="http://www.w3.org/2000/svg">
<mask id="mask0_879_420" style="mask-type:alpha" maskUnits="userSpaceOnUse" x="0" y="-1" width="401" height="393">
<rect x="0.217773" y="-0.000976562" width="400" height="392" fill="#D85988"/>
</mask>
<g mask="url(#mask0_879_420)">
<path opacity="0.4" d="M352.276 -287.739C406.759 -326.538 448.599 -395.255 515.367 -398.663C581.765 -402.053 626.402 -331.172 687.426 -304.846C764.875 -271.434 892.987 -302.176 922.351 -223.089C953.256 -139.855 819.075 -76.6462 804.703 11.0129C792.495 85.4693 885.436 163.489 848.208 229.135C811.883 293.189 711.177 271.884 642.188 297.586C581.521 320.188 530.717 375.789 466.146 371.476C401.606 367.165 347.712 320.336 301.756 274.847C260.692 234.199 256.976 169.232 218.386 126.228C160.125 61.3063 20.1889 48.9302 20.6975 -38.3487C21.1906 -122.991 152.55 -137.577 220.219 -188.473C264.992 -222.148 306.643 -255.241 352.276 -287.739Z" fill="#E4E4E4"/>
<path opacity="0.4" d="M341.276 -267.739C395.759 -306.538 437.599 -375.255 504.367 -378.663C570.765 -382.053 615.402 -311.172 676.426 -284.846C753.875 -251.434 881.987 -282.176 911.351 -203.089C942.256 -119.855 808.075 -56.6462 793.703 31.0129C781.495 105.469 874.436 183.489 837.208 249.135C800.883 313.189 700.177 291.884 631.188 317.586C570.521 340.188 519.717 395.789 455.146 391.476C390.606 387.165 336.712 340.336 290.756 294.847C249.692 254.199 245.976 189.232 207.386 146.228C149.125 81.3063 9.18892 68.9302 9.69746 -18.3487C10.1906 -102.991 141.55 -117.577 209.219 -168.473C253.992 -202.148 295.643 -235.241 341.276 -267.739Z" fill="#E4E4E4"/>
</g>
</svg>
