<svg width="405" height="400" viewBox="0 0 405 400" fill="none" xmlns="http://www.w3.org/2000/svg">
<rect x="4.21777" y="-0.000976562" width="400" height="392" fill="#FBFBFB"/>
<mask id="mask0_879_414" style="mask-type:alpha" maskUnits="userSpaceOnUse" x="4" y="-1" width="401" height="393">
<rect x="4.21777" y="-0.000976562" width="400" height="392" fill="#B0EBE9"/>
</mask>
<g mask="url(#mask0_879_414)">
<path d="M-235.724 387.261C-181.241 348.462 -139.401 279.745 -72.6334 276.337C-6.23475 272.947 38.4023 343.828 99.426 370.154C176.875 403.566 304.987 372.824 334.351 451.911C365.256 535.145 231.075 598.354 216.703 686.013C204.495 760.469 297.436 838.489 260.208 904.135C223.883 968.189 123.177 946.884 54.188 972.586C-6.47923 995.188 -57.2833 1050.79 -121.854 1046.48C-186.394 1042.16 -240.288 995.336 -286.244 949.847C-327.308 909.199 -331.024 844.232 -369.614 801.228C-427.875 736.306 -567.811 723.93 -567.303 636.651C-566.809 552.009 -435.45 537.423 -367.781 486.527C-323.008 452.852 -281.357 419.759 -235.724 387.261Z" fill="#E4E4E4"/>
</g>
</svg>
